<svg id="Capa_1" enable-background="new 0 0 512 512" height="512" viewBox="0 0 512 512" width="512" xmlns="http://www.w3.org/2000/svg"><path d="m467 30.975h-301c-24.901 0-45 20.099-45 45v180c0 24.899 20.099 45 45 45h301c24.901 0 45-20.101 45-45v-180c0-24.9-20.099-45-45-45z" fill="#ff7c48"/><path d="m512 75.975v180c0 24.899-20.099 45-45 45h-151v-270h151c24.901 0 45 20.1 45 45z" fill="#ff415b"/><path d="m406 90.975h-300c-24.901 0-45 20.099-45 45v180c0 24.899 20.099 45 45 45h300c24.901 0 45-20.101 45-45v-180c0-24.9-20.099-45-45-45z" fill="#8cf2f2"/><path d="m451 135.975v180c0 24.899-20.099 45-45 45h-150v-270h150c24.901 0 45 20.1 45 45z" fill="#57d9d4"/><path d="m346 150.975h-300c-24.901 0-46 20.099-46 45v180c0 24.899 21.099 45 46 45h15v45c0 5.4 2.999 10.499 7.8 13.2 4.799 2.699 10.8 2.399 15.601-.601l86.1-57.599h175.499c24.901 0 45-20.101 45-45v-180c0-24.9-20.099-45-45-45z" fill="#ffe375"/><path d="m391 195.975v180c0 24.899-20.099 45-45 45h-150v-270h150c24.901 0 45 20.1 45 45z" fill="#ffb725"/><path d="m301 255.975c0 8.399-6.599 15-15 15h-180c-8.401 0-15-6.601-15-15 0-8.401 6.599-15 15-15h180c8.401 0 15 6.599 15 15z" fill="#596c76"/><path d="m301 315.975c0 8.399-6.599 15-15 15h-180c-8.401 0-15-6.601-15-15 0-8.401 6.599-15 15-15h180c8.401 0 15 6.599 15 15z" fill="#596c76"/><g fill="#465a61"><path d="m301 315.975c0 8.399-6.599 15-15 15h-90v-30h90c8.401 0 15 6.599 15 15z"/><path d="m286 270.975h-90v-30h90c8.401 0 15 6.599 15 15 0 8.399-6.599 15-15 15z"/></g></svg>