<?xml version="1.0" encoding="iso-8859-1"?>
<!-- Generator: Adobe Illustrator 19.0.0, SVG Export Plug-In . SVG Version: 6.00 Build 0)  -->
<svg version="1.1" id="Layer_1" xmlns="http://www.w3.org/2000/svg" xmlns:xlink="http://www.w3.org/1999/xlink" x="0px" y="0px"
	 viewBox="0 0 321.493 321.493" style="enable-background:new 0 0 321.493 321.493;" xml:space="preserve">
<g>
	<g>
		<path d="M204.267,207.893l45.867-45.867l-69.653-18.88l-69.76-19.093l18.987,69.867l19.093,69.547l45.653-45.76l54.933,54.933
			l9.813-9.813L204.267,207.893z M155.84,236.8l-12.693-46.507l-12.587-46.4l46.293,12.587l46.613,12.693L155.84,236.8z"/>
	</g>
</g>
<g>
	<g>
		<path d="M0,0v321.493h321.493V0H0z M307.627,307.627H13.867V67.413h293.76V307.627z M307.627,53.547H13.867v-39.68h293.76V53.547z
			"/>
	</g>
</g>
<g>
	<g>
		<rect x="281.067" y="26.773" width="13.44" height="13.867"/>
	</g>
</g>
<g>
	<g>
		<rect x="254.4" y="26.773" width="13.333" height="13.867"/>
	</g>
</g>
<g>
	<g>
		<rect x="227.627" y="26.773" width="13.333" height="13.867"/>
	</g>
</g>
<g>
</g>
<g>
</g>
<g>
</g>
<g>
</g>
<g>
</g>
<g>
</g>
<g>
</g>
<g>
</g>
<g>
</g>
<g>
</g>
<g>
</g>
<g>
</g>
<g>
</g>
<g>
</g>
<g>
</g>
</svg>
