<?xml version="1.0" encoding="iso-8859-1"?>
<!-- Generator: Adobe Illustrator 19.0.0, SVG Export Plug-In . SVG Version: 6.00 Build 0)  -->
<svg version="1.1" id="Layer_1" xmlns="http://www.w3.org/2000/svg" xmlns:xlink="http://www.w3.org/1999/xlink" x="0px" y="0px"
	 viewBox="0 0 512 512" style="enable-background:new 0 0 512 512;" xml:space="preserve">
<g>
	<g>
		<path style="fill:#8697CB;" d="M141.241,326.621c-4.882,0-8.828-3.955-8.828-8.828V291.31c0-4.873,3.946-8.828,8.828-8.828
			s8.828,3.955,8.828,8.828v26.483C150.069,322.666,146.123,326.621,141.241,326.621"/>
		<path style="fill:#8697CB;" d="M229.517,326.621c-4.882,0-8.828-3.955-8.828-8.828V291.31c0-4.873,3.946-8.828,8.828-8.828
			s8.828,3.955,8.828,8.828v26.483C238.345,322.666,234.399,326.621,229.517,326.621"/>
		<path style="fill:#8697CB;" d="M52.966,326.621c-4.882,0-8.828-3.955-8.828-8.828V291.31c0-4.873,3.946-8.828,8.828-8.828
			s8.828,3.955,8.828,8.828v26.483C61.793,322.666,57.847,326.621,52.966,326.621"/>
	</g>
	<g>
		<path style="fill:#F9EBB0;" d="M335.448,61.793c-4.882,0-8.828-3.955-8.828-8.828v-35.31c0-4.873,3.946-8.828,8.828-8.828
			c4.882,0,8.828,3.955,8.828,8.828v35.31C344.276,57.838,340.33,61.793,335.448,61.793"/>
		<path style="fill:#F9EBB0;" d="M406.069,61.793c-4.882,0-8.828-3.955-8.828-8.828v-35.31c0-4.873,3.946-8.828,8.828-8.828
			c4.882,0,8.828,3.955,8.828,8.828v35.31C414.897,57.838,410.951,61.793,406.069,61.793"/>
		<path style="fill:#F9EBB0;" d="M476.69,61.793c-4.882,0-8.828-3.955-8.828-8.828v-35.31c0-4.873,3.946-8.828,8.828-8.828
			c4.882,0,8.828,3.955,8.828,8.828v35.31C485.517,57.838,481.571,61.793,476.69,61.793"/>
	</g>
	<polygon style="fill:#805333;" points="0,476.69 512,476.69 512,441.379 0,441.379 	"/>
	<g>
		<polygon style="fill:#5E3A21;" points="26.483,503.172 79.448,503.172 79.448,476.69 26.483,476.69 		"/>
		<polygon style="fill:#5E3A21;" points="432.552,503.172 485.517,503.172 485.517,476.69 432.552,476.69 		"/>
	</g>
	<polygon style="fill:#4482C3;" points="414.897,441.379 485.517,441.379 485.517,406.069 414.897,406.069 	"/>
	<polygon style="fill:#E64C3C;" points="300.138,441.379 370.759,441.379 370.759,406.069 300.138,406.069 	"/>
	<polygon style="fill:#F0C419;" points="353.103,406.069 432.552,406.069 432.552,370.759 353.103,370.759 	"/>
	<polygon style="fill:#8697CB;" points="114.759,441.379 167.724,441.379 167.724,353.103 114.759,353.103 	"/>
	<path style="fill:#556080;" d="M158.897,353.103h-35.31v-17.655c0-9.754,7.901-17.655,17.655-17.655s17.655,7.901,17.655,17.655
		V353.103z"/>
	<polygon style="fill:#8697CB;" points="203.034,441.379 256,441.379 256,353.103 203.034,353.103 	"/>
	<path style="fill:#556080;" d="M247.172,353.103h-35.31v-17.655c0-9.754,7.901-17.655,17.655-17.655
		c9.754,0,17.655,7.901,17.655,17.655V353.103z"/>
	<polygon style="fill:#8697CB;" points="26.483,441.379 79.448,441.379 79.448,353.103 26.483,353.103 	"/>
	<path style="fill:#556080;" d="M70.621,353.103H35.31v-17.655c0-9.754,7.901-17.655,17.655-17.655s17.655,7.901,17.655,17.655
		V353.103z"/>
	<polygon style="fill:#805333;" points="0,176.552 512,176.552 512,141.241 0,141.241 	"/>
	<g>
		<polygon style="fill:#5E3A21;" points="26.483,203.034 79.448,203.034 79.448,176.552 26.483,176.552 		"/>
		<polygon style="fill:#5E3A21;" points="432.552,203.034 485.517,203.034 485.517,176.552 432.552,176.552 		"/>
	</g>
	<polygon style="fill:#F0C419;" points="132.414,141.241 167.724,141.241 167.724,26.483 132.414,26.483 	"/>
	<polygon style="fill:#E64C3C;" points="97.103,141.241 132.414,141.241 132.414,52.966 97.103,52.966 	"/>
	<polygon style="fill:#8697CB;" points="61.793,141.241 97.103,141.241 97.103,26.483 61.793,26.483 	"/>
	<path style="fill:#527F72;" d="M353.103,141.241h-35.31V70.621c0-9.754,7.901-17.655,17.655-17.655s17.655,7.901,17.655,17.655
		V141.241z"/>
	<polygon style="fill:#4482C3;" points="26.483,141.241 61.793,141.241 61.793,52.966 26.483,52.966 	"/>
	<g>
		<path style="fill:#527F72;" d="M423.724,141.241h-35.31V70.621c0-9.754,7.901-17.655,17.655-17.655s17.655,7.901,17.655,17.655
			V141.241z"/>
		<path style="fill:#527F72;" d="M494.345,141.241h-35.31V70.621c0-9.754,7.901-17.655,17.655-17.655
			c9.754,0,17.655,7.901,17.655,17.655V141.241z"/>
	</g>
	<polygon style="fill:#C49C1C;" points="203.034,141.241 238.345,141.241 238.345,105.931 203.034,105.931 	"/>
	<polygon style="fill:#A07C17;" points="238.345,141.241 273.655,141.241 273.655,105.931 238.345,105.931 	"/>
	<polygon style="fill:#F0C419;" points="220.69,105.931 256,105.931 256,70.621 220.69,70.621 	"/>
</g>
<g>
</g>
<g>
</g>
<g>
</g>
<g>
</g>
<g>
</g>
<g>
</g>
<g>
</g>
<g>
</g>
<g>
</g>
<g>
</g>
<g>
</g>
<g>
</g>
<g>
</g>
<g>
</g>
<g>
</g>
</svg>
