<svg height="512" viewBox="0 0 64 64" width="512" xmlns="http://www.w3.org/2000/svg"><g id="Web_Hosting" data-name="Web Hosting"><path d="m6 9h2v2h-2z"/><path d="m10 9h2v2h-2z"/><path d="m14 9h2v2h-2z"/><path d="m44 33a9 9 0 1 0 9 9 9.01 9.01 0 0 0 -9-9zm0 16a7 7 0 1 1 7-7 7.008 7.008 0 0 1 -7 7z"/><path d="m61.142 38.01-3.907-.558a14 14 0 0 0 -.657-1.6l2.364-3.152a1 1 0 0 0 -.092-1.307l-4.244-4.243a1 1 0 0 0 -1.306-.093l-3.154 2.364c-.047-.023-.1-.038-.146-.06v-21.361a3 3 0 0 0 -3-3h-42a3 3 0 0 0 -3 3v42a3 3 0 0 0 3 3h24.544l3.85 3.849a1 1 0 0 0 1.306.093l3.153-2.364a13.921 13.921 0 0 0 1.6.657l.558 3.906a1 1 0 0 0 .989.859h6a1 1 0 0 0 .99-.859l.558-3.906a13.921 13.921 0 0 0 1.6-.657l3.152 2.364a1 1 0 0 0 1.306-.093l4.244-4.243a1 1 0 0 0 .092-1.307l-2.364-3.152a14 14 0 0 0 .657-1.6l3.907-.558a1 1 0 0 0 .858-.989v-6a1 1 0 0 0 -.858-.99zm-56.142-31.01h42a1 1 0 0 1 1 1v5h-44v-5a1 1 0 0 1 1-1zm-1 43v-35h44v9.927l-.01-.068a1 1 0 0 0 -.99-.859h-6a1 1 0 0 0 -.99.859l-.558 3.906a13.905 13.905 0 0 0 -1.6.657l-3.152-2.364a1 1 0 0 0 -1.306.093l-4.244 4.243a1 1 0 0 0 -.092 1.307l2.364 3.152a14 14 0 0 0 -.657 1.6l-3.907.558a1 1 0 0 0 -.858.989v6a1 1 0 0 0 .858.99l3.907.558a14 14 0 0 0 .657 1.6l-2.14 2.852h-24.282a1 1 0 0 1 -1-1zm56-5.867-3.67.524a1 1 0 0 0 -.818.71 11.939 11.939 0 0 1 -.987 2.4 1 1 0 0 0 .077 1.081l2.22 2.961-3.016 3.016-2.961-2.225a1 1 0 0 0 -1.081-.077 11.9 11.9 0 0 1 -2.4.987 1 1 0 0 0 -.71.819l-.521 3.671h-4.266l-.523-3.669a1 1 0 0 0 -.71-.819 11.9 11.9 0 0 1 -2.4-.987 1 1 0 0 0 -1.081.077l-2.961 2.22-3.016-3.016 2.22-2.961a1 1 0 0 0 .077-1.081 11.939 11.939 0 0 1 -.987-2.4 1 1 0 0 0 -.818-.71l-3.668-.521v-4.266l3.67-.524a1 1 0 0 0 .818-.71 11.939 11.939 0 0 1 .987-2.4 1 1 0 0 0 -.077-1.081l-2.22-2.961 3.016-3.016 2.961 2.22a1 1 0 0 0 1.081.077 12 12 0 0 1 2.4-.987 1 1 0 0 0 .71-.819l.521-3.666h4.266l.523 3.669a1 1 0 0 0 .71.819 12 12 0 0 1 2.4.987 1 1 0 0 0 1.081-.077l2.961-2.22 3.016 3.016-2.224 2.961a1 1 0 0 0 -.077 1.081 11.939 11.939 0 0 1 .987 2.4 1 1 0 0 0 .818.71l3.67.524z"/><path d="m43 28h2v2h-2z"/><path d="m33.808 31.808h2v2h-2z" transform="matrix(.707 -.707 .707 .707 -13.004 34.222)"/><path d="m30 41h2v2h-2z"/><path d="m33.808 50.192h2v2h-2z" transform="matrix(.707 -.707 .707 .707 -26.004 39.607)"/><path d="m43 54h2v2h-2z"/><path d="m52.192 50.192h2v2h-2z" transform="matrix(.707 -.707 .707 .707 -20.619 52.607)"/><path d="m56 41h2v2h-2z"/><path d="m52.192 31.808h2v2h-2z" transform="matrix(.707 -.707 .707 .707 -7.619 47.222)"/><path d="m11 23h2v2h-2z"/><path d="m15 23h2v2h-2z"/><path d="m19 23h2v2h-2z"/><path d="m23 19h-14a1 1 0 0 0 -1 1v8a1 1 0 0 0 1 1h14a1 1 0 0 0 1-1v-8a1 1 0 0 0 -1-1zm-1 8h-12v-6h12z"/><path d="m8 33h4v2h-4z"/><path d="m14 33h10v2h-10z"/><path d="m8 37h16v2h-16z"/><path d="m8 41h16v2h-16z"/><path d="m28 21h2v2h-2z"/><path d="m32 21h8v2h-8z"/><path d="m28 25h4v2h-4z"/><path d="m8 45h10v2h-10z"/><path d="m20 45h4v2h-4z"/></g></svg>