<?xml version="1.0"?>
<svg xmlns="http://www.w3.org/2000/svg" viewBox="0 0 64 64" width="512" height="512"><g id="Team"><path d="M61,39v1a1,1,0,0,1-1,1H58V38h2A1,1,0,0,1,61,39Z" style="fill:#ffc477"/><path d="M61,34v1l-3,3V35l-8-2-4,2v3l-3-3V34a6,6,0,0,1,6-6h6A6,6,0,0,1,61,34Z" style="fill:#c0ab91"/><path d="M59,53l-2,8H47l-2-8,4-3V46.19a5.961,5.961,0,0,0,6,0V50Z" style="fill:#57a4ff"/><path d="M58,35v6a5.985,5.985,0,0,1-3,5.19,5.961,5.961,0,0,1-6,0A5.985,5.985,0,0,1,46,41V35l4-2Z" style="fill:#ffdaaa"/><path d="M59,53l-2,8H55l2-8-4-3V46.92a5.79,5.79,0,0,0,2-.73V50Z" style="fill:#2488ff"/><path d="M58,35v6a5.985,5.985,0,0,1-3,5.19A5.857,5.857,0,0,1,52,47a6.531,6.531,0,0,1-1-.08,5.79,5.79,0,0,0,2-.73A5.985,5.985,0,0,0,56,41V35l-1.86-.46a.01.01,0,0,0-.01-.01l-4.8-1.2L50,33l6.13,1.53a.01.01,0,0,1,.01.01Z" style="fill:#ffc477"/><path d="M46,38v3H44a1,1,0,0,1-1-1V39a1,1,0,0,1,1-1Z" style="fill:#ffc477"/><path d="M46,13a4,4,0,0,1-.55,2A3.981,3.981,0,0,1,42,21a4.937,4.937,0,0,1-4-2h2a1,1,0,0,0,1-1V17a1,1,0,0,0-1-1H38V13l-1.86-.46a.01.01,0,0,0-.01-.01L30,11l-.82.41a.01.01,0,0,0-.01.01L26,13v3H24a1,1,0,0,0-1,1v1a1,1,0,0,0,1,1h2a4.937,4.937,0,0,1-4,2,3.981,3.981,0,0,1-3.45-6A3.981,3.981,0,0,1,22,9a4,4,0,0,1,4-4,3.932,3.932,0,0,1,2.24.69,3.973,3.973,0,0,1,7.52,0A3.932,3.932,0,0,1,38,5a4,4,0,0,1,4,4A4,4,0,0,1,46,13Z" style="fill:#c6c5ca"/><path d="M41,17v1a1,1,0,0,1-1,1H38V16h2A1,1,0,0,1,41,17Z" style="fill:#ffb655"/><path d="M39,31l-2,8H27l-2-8,4-3V24.19a5.961,5.961,0,0,0,6,0V28Z" style="fill:#898890"/><path d="M38,13v6a5.985,5.985,0,0,1-3,5.19,5.961,5.961,0,0,1-6,0A5.985,5.985,0,0,1,26,19V13l3.17-1.58a.01.01,0,0,1,.01-.01L30,11l6.13,1.53a.01.01,0,0,1,.01.01Z" style="fill:#ffdaaa"/><path d="M39,31l-2,8H35l2-8-4-3V24.92a5.79,5.79,0,0,0,2-.73V28Z" style="fill:#787680"/><path d="M38,13v6a5.985,5.985,0,0,1-3,5.19A5.857,5.857,0,0,1,32,25a6.531,6.531,0,0,1-1-.08,5.79,5.79,0,0,0,2-.73A5.985,5.985,0,0,0,36,19V13l-1.86-.46a.01.01,0,0,0-.01-.01l-4.8-1.2L30,11l6.13,1.53a.01.01,0,0,1,.01.01Z" style="fill:#ffc477"/><circle cx="32" cy="54" r="4" style="fill:#ffde55"/><path d="M26,16v3H24a1,1,0,0,1-1-1V17a1,1,0,0,1,1-1Z" style="fill:#ffb655"/><path d="M21,39v1a1,1,0,0,1-1,1H18V38h2A1,1,0,0,1,21,39Z" style="fill:#ffc477"/><path d="M21,34v1l-3,3V35l-8-2L6,35v3L3,35V34a6,6,0,0,1,6-6h6A6,6,0,0,1,21,34Z" style="fill:#ffeb99"/><path d="M61,34v1l-3,3V36l1-1V34a6,6,0,0,0-6-6h2A6,6,0,0,1,61,34Z" style="fill:#b39a7c"/><path d="M45.45,15A3.981,3.981,0,0,1,42,21a4.746,4.746,0,0,1-1.04-.12A3.974,3.974,0,0,0,43.45,15,3.981,3.981,0,0,0,40,9a3.992,3.992,0,0,0-3.01-3.87A3.73,3.73,0,0,1,38,5a4,4,0,0,1,4,4,3.981,3.981,0,0,1,3.45,6Z" style="fill:#acabb1"/><path d="M21,34v1l-3,3V36l1-1V34a6,6,0,0,0-6-6h2A6,6,0,0,1,21,34Z" style="fill:#ffde55"/><path d="M19,53l-2,8H7L5,53l4-3V46.19a5.961,5.961,0,0,0,6,0V50Z" style="fill:#00eed1"/><path d="M18,35v6a5.985,5.985,0,0,1-3,5.19,5.961,5.961,0,0,1-6,0A5.985,5.985,0,0,1,6,41V35l4-2Z" style="fill:#ffdaaa"/><path d="M6,38v3H4a1,1,0,0,1-1-1V39a1,1,0,0,1,1-1Z" style="fill:#ffc477"/><path d="M19,53l-2,8H15l2-8-4-3V46.92a5.79,5.79,0,0,0,2-.73V50Z" style="fill:#00ddc2"/><path d="M18,35v6a5.985,5.985,0,0,1-3,5.19A5.857,5.857,0,0,1,12,47a6.531,6.531,0,0,1-1-.08,5.79,5.79,0,0,0,2-.73A5.985,5.985,0,0,0,16,41V35l-1.86-.46a.01.01,0,0,0-.01-.01l-4.8-1.2L10,33l6.13,1.53a.01.01,0,0,1,.01.01Z" style="fill:#ffc477"/><path d="M33,49.1V42H31v7.1A5.016,5.016,0,0,0,27.1,53H22v2h5.1a5,5,0,0,0,9.8,0H42V53H36.9A5.016,5.016,0,0,0,33,49.1ZM32,57a3,3,0,1,1,3-3A3,3,0,0,1,32,57Z"/><path d="M22,39a2,2,0,0,0-1.624-1.962l1.331-1.331A1,1,0,0,0,22,35V34a7.008,7.008,0,0,0-7-7H9a7.008,7.008,0,0,0-7,7v1a1,1,0,0,0,.293.707l1.331,1.331A2,2,0,0,0,2,39v1a2,2,0,0,0,2,2H5.08A7,7,0,0,0,8,46.736V49.5L4.4,52.2a1,1,0,0,0-.37,1.043l2,8A1,1,0,0,0,7,62H17a1,1,0,0,0,.97-.757l2-8A1,1,0,0,0,19.6,52.2L16,49.5V46.736A7,7,0,0,0,18.92,42H20a2,2,0,0,0,2-2ZM4,34a5.006,5.006,0,0,1,5-5h6a5.006,5.006,0,0,1,5,5v.586l-1,1V35a1,1,0,0,0-.757-.97l-8-2a1,1,0,0,0-.69.075l-4,2A1,1,0,0,0,5,35v.586l-1-1Zm0,5H5v1H4ZM14.4,50.8l3.469,2.6L16.219,60H7.781l-1.65-6.6L9.6,50.8A1,1,0,0,0,10,50v-2.3a6.927,6.927,0,0,0,4,0V50A1,1,0,0,0,14.4,50.8ZM17,41A5,5,0,0,1,7,41V35.618l3.116-1.558L17,35.781Zm3-1H19V39h1Z"/><path d="M62,35V34a7.008,7.008,0,0,0-7-7H49a7.008,7.008,0,0,0-7,7v1a1,1,0,0,0,.293.707l1.331,1.331A2,2,0,0,0,42,39v1a2,2,0,0,0,2,2h1.08A7,7,0,0,0,48,46.736V49.5l-3.6,2.7a1,1,0,0,0-.37,1.043l2,8A1,1,0,0,0,47,62H57a1,1,0,0,0,.97-.757l2-8A1,1,0,0,0,59.6,52.2L56,49.5V46.736A7,7,0,0,0,58.92,42H60a2,2,0,0,0,2-2V39a2,2,0,0,0-1.624-1.962l1.331-1.331A1,1,0,0,0,62,35ZM44,34a5.006,5.006,0,0,1,5-5h6a5.006,5.006,0,0,1,5,5v.586l-1,1V35a1,1,0,0,0-.757-.97l-8-2a1,1,0,0,0-.69.075l-4,2A1,1,0,0,0,45,35v.586l-1-1Zm0,5h1v1H44ZM54.4,50.8l3.469,2.6L56.219,60H47.781l-1.65-6.6L49.6,50.8A1,1,0,0,0,50,50v-2.3a6.927,6.927,0,0,0,4,0V50A1,1,0,0,0,54.4,50.8ZM57,41a5,5,0,0,1-10,0V35.618l3.116-1.558L57,35.781Zm3-1H59V39h1Z"/><path d="M22,22a6.618,6.618,0,0,0,3.3-.968,7.023,7.023,0,0,0,2.7,3.7V27.5l-3.6,2.7a1,1,0,0,0-.37,1.043l2,8A1,1,0,0,0,27,40H37a1,1,0,0,0,.97-.757l2-8A1,1,0,0,0,39.6,30.2L36,27.5V24.736a7.023,7.023,0,0,0,2.7-3.7A6.618,6.618,0,0,0,42,22a5.006,5.006,0,0,0,5-5,4.946,4.946,0,0,0-.43-2A4.946,4.946,0,0,0,47,13a5.009,5.009,0,0,0-4.084-4.916A5.005,5.005,0,0,0,36.209,4.33a4.967,4.967,0,0,0-8.418,0,5.005,5.005,0,0,0-6.707,3.754A5.009,5.009,0,0,0,17,13a4.946,4.946,0,0,0,.43,2A4.946,4.946,0,0,0,17,17,5.006,5.006,0,0,0,22,22Zm3-4H24V17h1Zm9.4,10.8,3.469,2.6L36.219,38H27.781l-1.65-6.6L29.6,28.8A1,1,0,0,0,30,28v-2.3a6.927,6.927,0,0,0,4,0V28A1,1,0,0,0,34.4,28.8ZM37,19a5,5,0,0,1-10,0V13.618l3.116-1.558L37,13.781Zm2-2h1v1H39ZM19.417,14.5A2.974,2.974,0,0,1,19,13a3,3,0,0,1,3-3,1,1,0,0,0,1-1,3,3,0,0,1,3-3,2.944,2.944,0,0,1,1.674.514,1,1,0,0,0,1.512-.5,2.971,2.971,0,0,1,5.628,0,1,1,0,0,0,1.512.5A2.944,2.944,0,0,1,38,6a3,3,0,0,1,3,3,1,1,0,0,0,1,1,3,3,0,0,1,3,3,2.974,2.974,0,0,1-.417,1.5,1,1,0,0,0,0,1A2.974,2.974,0,0,1,45,17a3,3,0,0,1-3,3,4.144,4.144,0,0,1-1.167-.187A2,2,0,0,0,42,18V17a2,2,0,0,0-2-2H39V13a1,1,0,0,0-.757-.97l-8-2a1,1,0,0,0-.69.075l-4,2A1,1,0,0,0,25,13v2H24a2,2,0,0,0-2,2v1a2,2,0,0,0,1.167,1.813A4.144,4.144,0,0,1,22,20a3,3,0,0,1-3-3,2.974,2.974,0,0,1,.417-1.5A1,1,0,0,0,19.417,14.5Z"/></g></svg>
